<svg xmlns="http://www.w3.org/2000/svg" width="1200" height="800" viewBox="0 0 1200 800">
  <defs>
    <filter id="paper">
      <feTurbulence type="fractalNoise" baseFrequency="0.85" numOctaves="2" seed="61"/>
      <feColorMatrix values="0 0 0 0 0.85  0 0 0 0 0.78  0 0 0 0 0.65  0 0 0 0.08 0"/>
    </filter>
    <filter id="ink">
      <feTurbulence type="fractalNoise" baseFrequency="0.6" numOctaves="3" seed="78"/>
      <feDisplacementMap in="SourceGraphic" scale="3"/>
    </filter>
  </defs>

  <rect width="1200" height="800" fill="#f4ecdc"/>
  <rect width="1200" height="800" fill="#f4ecdc" filter="url(#paper)"/>

  <!-- 远山 -->
  <path d="M 0 364 Q 28.57142857142857 307 85.71428571428571 287 T 171.42857142857142 307 Q 199.99999999999997 340 257.1428571428571 320 T 342.85714285714283 340 Q 371.42857142857144 313 428.57142857142856 293 T 514.2857142857142 313 Q 542.8571428571429 347 600 327 T 685.7142857142857 347 Q 714.2857142857142 320 771.4285714285713 300 T 857.142857142857 320 Q 885.7142857142857 353 942.8571428571428 333 T 1028.5714285714284 353 Q 1057.142857142857 327 1114.2857142857142 307 T 1200 327 L 1200 800 L 0 800 Z" fill="#3a3a3a" opacity="0.18" filter="url(#ink)"/>
  <!-- 中山 -->
  <path d="M 0 463 Q 28.57142857142857 406 85.71428571428571 386 T 171.42857142857142 406 Q 199.99999999999997 439 257.1428571428571 419 T 342.85714285714283 439 Q 371.42857142857144 412 428.57142857142856 392 T 514.2857142857142 412 Q 542.8571428571429 446 600 426 T 685.7142857142857 446 Q 714.2857142857142 419 771.4285714285713 399 T 857.142857142857 419 Q 885.7142857142857 452 942.8571428571428 432 T 1028.5714285714284 452 Q 1057.142857142857 426 1114.2857142857142 406 T 1200 426 L 1200 800 L 0 800 Z" fill="#2a2a2a" opacity="0.30" filter="url(#ink)"/>
  <!-- 近山 -->
  <path d="M 0 552 Q 28.57142857142857 495 85.71428571428571 475 T 171.42857142857142 495 Q 199.99999999999997 528 257.1428571428571 508 T 342.85714285714283 528 Q 371.42857142857144 501 428.57142857142856 481 T 514.2857142857142 501 Q 542.8571428571429 535 600 515 T 685.7142857142857 535 Q 714.2857142857142 508 771.4285714285713 488 T 857.142857142857 508 Q 885.7142857142857 541 942.8571428571428 521 T 1028.5714285714284 541 Q 1057.142857142857 515 1114.2857142857142 495 T 1200 515 L 1200 800 L 0 800 Z" fill="#1a1a1a" opacity="0.45" filter="url(#ink)"/>

  <!-- 主题元素 (在山前, 水墨淡) -->
  <g transform="translate(540, 420)" opacity="0.5">
        <path d="M 50 0 L 50 20 Q 50 30 60 30 L 60 30 Q 50 40 30 80 Q 10 130 30 200 L 90 200 Q 110 130 90 80 Q 70 40 60 30 Q 70 30 70 20 L 70 0 Z" fill="#e8dcc0" stroke="#3a3a3a" stroke-width="1.5"/>
        <path d="M 30 100 Q 60 110 90 100" stroke="#c43a30" stroke-width="1" fill="none" opacity="0.6"/>
        <path d="M 35 130 q 15 -8 25 0 q 10 8 25 0" stroke="#3a3a3a" stroke-width="0.6" fill="none" opacity="0.5"/>
      </g>

  <!-- 飞鸟 -->
  <path d="M 844 141 q 8 -6 16 0 m -16 0 q 8 6 16 0" stroke="#1a1a1a" stroke-width="1.8" fill="none" opacity="0.55"/>
  <path d="M 400 64 q 8 -6 16 0 m -16 0 q 8 6 16 0" stroke="#1a1a1a" stroke-width="1.8" fill="none" opacity="0.55"/>
  <path d="M 756 126 q 8 -6 16 0 m -16 0 q 8 6 16 0" stroke="#1a1a1a" stroke-width="1.8" fill="none" opacity="0.55"/>

  <!-- 小舟 -->
  <path d="M 384 612 q 50 -10 100 0 z" fill="#1a1a1a" opacity="0.65"/>
<line x1="434" y1="612" x2="434" y2="580" stroke="#1a1a1a" stroke-width="1.2" opacity="0.6"/>

  <!-- 右侧朱砂方印 -->
  <g transform="translate(1070, 90)">
    <rect x="0" y="0" width="70" height="70" fill="none" stroke="#c43a30" stroke-width="3" rx="2"/>
    <text x="35" y="48" font-family="'KaiTi','STKaiti',serif" font-size="36" fill="#c43a30" text-anchor="middle" font-weight="bold">器</text>
  </g>

  <!-- 左侧题款 -->
  <g transform="translate(80, 90)">
    <text x="0" y="0" font-family="'KaiTi','STKaiti',serif" font-size="14" fill="#3a3a3a" letter-spacing="6" opacity="0.7">溯　光</text>
    <line x1="0" y1="14" x2="60" y2="14" stroke="#3a3a3a" stroke-width="0.5" opacity="0.4"/>
    <text x="0" y="36" font-family="'KaiTi','STKaiti',serif" font-size="22" fill="#1a1a1a" letter-spacing="8" opacity="0.85">器 物</text>
  </g>

  <!-- 底部溯光印 -->
  <g transform="translate(80, 730)">
    <rect x="0" y="0" width="44" height="44" fill="#c43a30" rx="1"/>
    <text x="22" y="30" font-family="'KaiTi','STKaiti',serif" font-size="18" fill="#faf5e8" text-anchor="middle" font-weight="bold">溯光</text>
  </g>
</svg>