<svg xmlns="http://www.w3.org/2000/svg" width="1200" height="800" viewBox="0 0 1200 800">
  <defs>
    <filter id="paper">
      <feTurbulence type="fractalNoise" baseFrequency="0.85" numOctaves="2" seed="91"/>
      <feColorMatrix values="0 0 0 0 0.85  0 0 0 0 0.78  0 0 0 0 0.65  0 0 0 0.08 0"/>
    </filter>
    <filter id="ink">
      <feTurbulence type="fractalNoise" baseFrequency="0.6" numOctaves="3" seed="8"/>
      <feDisplacementMap in="SourceGraphic" scale="3"/>
    </filter>
  </defs>

  <rect width="1200" height="800" fill="#f4ecdc"/>
  <rect width="1200" height="800" fill="#f4ecdc" filter="url(#paper)"/>

  <!-- 远山 -->
  <path d="M 0 350 Q 28.57142857142857 323 85.71428571428571 303 T 171.42857142857142 323 Q 199.99999999999997 305 257.1428571428571 285 T 342.85714285714283 305 Q 371.42857142857144 287 428.57142857142856 267 T 514.2857142857142 287 Q 542.8571428571429 330 600 310 T 685.7142857142857 330 Q 714.2857142857142 312 771.4285714285713 292 T 857.142857142857 312 Q 885.7142857142857 294 942.8571428571428 274 T 1028.5714285714284 294 Q 1057.142857142857 337 1114.2857142857142 317 T 1200 337 L 1200 800 L 0 800 Z" fill="#3a3a3a" opacity="0.18" filter="url(#ink)"/>
  <!-- 中山 -->
  <path d="M 0 451 Q 28.57142857142857 424 85.71428571428571 404 T 171.42857142857142 424 Q 199.99999999999997 406 257.1428571428571 386 T 342.85714285714283 406 Q 371.42857142857144 388 428.57142857142856 368 T 514.2857142857142 388 Q 542.8571428571429 431 600 411 T 685.7142857142857 431 Q 714.2857142857142 413 771.4285714285713 393 T 857.142857142857 413 Q 885.7142857142857 395 942.8571428571428 375 T 1028.5714285714284 395 Q 1057.142857142857 438 1114.2857142857142 418 T 1200 438 L 1200 800 L 0 800 Z" fill="#2a2a2a" opacity="0.30" filter="url(#ink)"/>
  <!-- 近山 -->
  <path d="M 0 566 Q 28.57142857142857 539 85.71428571428571 519 T 171.42857142857142 539 Q 199.99999999999997 521 257.1428571428571 501 T 342.85714285714283 521 Q 371.42857142857144 503 428.57142857142856 483 T 514.2857142857142 503 Q 542.8571428571429 546 600 526 T 685.7142857142857 546 Q 714.2857142857142 528 771.4285714285713 508 T 857.142857142857 528 Q 885.7142857142857 510 942.8571428571428 490 T 1028.5714285714284 510 Q 1057.142857142857 553 1114.2857142857142 533 T 1200 553 L 1200 800 L 0 800 Z" fill="#1a1a1a" opacity="0.45" filter="url(#ink)"/>

  <!-- 主题元素 (在山前, 水墨淡) -->
  

  <!-- 飞鸟 -->
  <path d="M 684 169 q 8 -6 16 0 m -16 0 q 8 6 16 0" stroke="#1a1a1a" stroke-width="1.8" fill="none" opacity="0.55"/>
  <path d="M 920 71 q 8 -6 16 0 m -16 0 q 8 6 16 0" stroke="#1a1a1a" stroke-width="1.8" fill="none" opacity="0.55"/>
  <path d="M 356 112 q 8 -6 16 0 m -16 0 q 8 6 16 0" stroke="#1a1a1a" stroke-width="1.8" fill="none" opacity="0.55"/>

  <!-- 小舟 -->
  <path d="M 164 627 q 50 -10 100 0 z" fill="#1a1a1a" opacity="0.65"/>
<line x1="214" y1="627" x2="214" y2="595" stroke="#1a1a1a" stroke-width="1.2" opacity="0.6"/>

  <!-- 右侧朱砂方印 -->
  <g transform="translate(1070, 90)">
    <rect x="0" y="0" width="70" height="70" fill="none" stroke="#c43a30" stroke-width="3" rx="2"/>
    <text x="35" y="48" font-family="'KaiTi','STKaiti',serif" font-size="36" fill="#c43a30" text-anchor="middle" font-weight="bold">诗</text>
  </g>

  <!-- 左侧题款 -->
  <g transform="translate(80, 90)">
    <text x="0" y="0" font-family="'KaiTi','STKaiti',serif" font-size="14" fill="#3a3a3a" letter-spacing="6" opacity="0.7">溯　光</text>
    <line x1="0" y1="14" x2="60" y2="14" stroke="#3a3a3a" stroke-width="0.5" opacity="0.4"/>
    <text x="0" y="36" font-family="'KaiTi','STKaiti',serif" font-size="22" fill="#1a1a1a" letter-spacing="8" opacity="0.85">诗 词</text>
  </g>

  <!-- 底部溯光印 -->
  <g transform="translate(80, 730)">
    <rect x="0" y="0" width="44" height="44" fill="#c43a30" rx="1"/>
    <text x="22" y="30" font-family="'KaiTi','STKaiti',serif" font-size="18" fill="#faf5e8" text-anchor="middle" font-weight="bold">溯光</text>
  </g>
</svg>